G04 #@! TF.GenerationSoftware,KiCad,Pcbnew,5.0.1-33cea8e~68~ubuntu18.04.1*
G04 #@! TF.CreationDate,2018-11-21T15:29:58-05:00*
G04 #@! TF.ProjectId,Christmas_2018,4368726973746D61735F323031382E6B,A1*
G04 #@! TF.SameCoordinates,Original*
G04 #@! TF.FileFunction,Copper,L2,Bot,Signal*
G04 #@! TF.FilePolarity,Positive*
%FSLAX46Y46*%
G04 Gerber Fmt 4.6, Leading zero omitted, Abs format (unit mm)*
G04 Created by KiCad (PCBNEW 5.0.1-33cea8e~68~ubuntu18.04.1) date Wed 21 Nov 2018 03:29:58 PM EST*
%MOMM*%
%LPD*%
G01*
G04 APERTURE LIST*
G04 #@! TA.AperFunction,SMDPad,CuDef*
%ADD10R,2.540000X5.080000*%
G04 #@! TD*
G04 #@! TA.AperFunction,BGAPad,CuDef*
%ADD11C,17.780001*%
G04 #@! TD*
G04 #@! TA.AperFunction,SMDPad,CuDef*
%ADD12R,1.000000X2.510000*%
G04 #@! TD*
G04 #@! TA.AperFunction,ViaPad*
%ADD13C,0.800000*%
G04 #@! TD*
G04 #@! TA.AperFunction,Conductor*
%ADD14C,0.250000*%
G04 #@! TD*
G04 APERTURE END LIST*
D10*
G04 #@! TO.P,U2,1*
G04 #@! TO.N,VCC*
X121920000Y-108712000D03*
G04 #@! TO.P,U2,3*
X144780000Y-108712000D03*
D11*
G04 #@! TO.P,U2,2*
G04 #@! TO.N,GND*
X133350000Y-108585000D03*
G04 #@! TD*
D12*
G04 #@! TO.P,J1,5*
G04 #@! TO.N,GND*
X165100000Y-117225000D03*
G04 #@! TO.P,J1,3*
G04 #@! TO.N,/PA1*
X160020000Y-117225000D03*
G04 #@! TO.P,J1,1*
G04 #@! TO.N,VCC*
X154940000Y-117225000D03*
G04 #@! TO.P,J1,4*
G04 #@! TO.N,/RST*
X162560000Y-113915000D03*
G04 #@! TO.P,J1,2*
G04 #@! TO.N,/PA0*
X157480000Y-113915000D03*
G04 #@! TD*
D13*
G04 #@! TO.N,VCC*
X132400000Y-120819700D03*
G04 #@! TO.N,GND*
X134300000Y-118119100D03*
G04 #@! TO.N,Net-(D1-Pad1)*
X157708800Y-95843300D03*
X123995000Y-95843300D03*
G04 #@! TO.N,Net-(D11-Pad1)*
X142173300Y-78947600D03*
X132420000Y-68937200D03*
G04 #@! TO.N,Net-(D13-Pad1)*
X126195000Y-94803800D03*
X142705000Y-94803800D03*
G04 #@! TO.N,/RST*
X132794100Y-124776400D03*
G04 #@! TO.N,/PA1*
X132064300Y-127257000D03*
G04 #@! TO.N,/PA0*
X145715500Y-112176000D03*
G04 #@! TD*
D14*
G04 #@! TO.N,VCC*
X132400000Y-120819700D02*
X123157600Y-111577300D01*
X123157600Y-111577300D02*
X121920000Y-111577300D01*
X144434700Y-111922600D02*
X135537600Y-120819700D01*
X135537600Y-120819700D02*
X132400000Y-120819700D01*
X121920000Y-108712000D02*
X121920000Y-111577300D01*
X144434700Y-111922600D02*
X144780000Y-111577300D01*
X154940000Y-115644700D02*
X148156800Y-115644700D01*
X148156800Y-115644700D02*
X144434700Y-111922600D01*
X154940000Y-117225000D02*
X154940000Y-115644700D01*
X144780000Y-108712000D02*
X144780000Y-111577300D01*
G04 #@! TO.N,GND*
X134300000Y-109535000D02*
X133350000Y-108585000D01*
X134300000Y-118119100D02*
X134300000Y-109535000D01*
X134300000Y-109535000D02*
X138033700Y-105801300D01*
X138033700Y-105801300D02*
X156725500Y-105801300D01*
X156725500Y-105801300D02*
X165100000Y-114175800D01*
X165100000Y-114175800D02*
X165100000Y-117225000D01*
G04 #@! TO.N,Net-(D1-Pad1)*
X157708800Y-95843300D02*
X123995000Y-95843300D01*
G04 #@! TO.N,Net-(D11-Pad1)*
X142173300Y-78947600D02*
X142173300Y-78690500D01*
X142173300Y-78690500D02*
X132420000Y-68937200D01*
G04 #@! TO.N,Net-(D13-Pad1)*
X142705000Y-94803800D02*
X126195000Y-94803800D01*
G04 #@! TO.N,/RST*
X162560000Y-113915000D02*
X162560000Y-115495300D01*
X162560000Y-115495300D02*
X158979500Y-115495300D01*
X158979500Y-115495300D02*
X154610600Y-119864200D01*
X154610600Y-119864200D02*
X137706300Y-119864200D01*
X137706300Y-119864200D02*
X132794100Y-124776400D01*
G04 #@! TO.N,/PA1*
X160020000Y-117225000D02*
X160020000Y-118805300D01*
X160020000Y-118805300D02*
X158510700Y-120314600D01*
X158510700Y-120314600D02*
X139006700Y-120314600D01*
X139006700Y-120314600D02*
X132064300Y-127257000D01*
G04 #@! TO.N,/PA0*
X157480000Y-113915000D02*
X157480000Y-112334700D01*
X157480000Y-112334700D02*
X145874200Y-112334700D01*
X145874200Y-112334700D02*
X145715500Y-112176000D01*
G04 #@! TD*
M02*
