G04 #@! TF.GenerationSoftware,KiCad,Pcbnew,5.0.1-33cea8e~68~ubuntu18.04.1*
G04 #@! TF.CreationDate,2018-11-21T15:29:58-05:00*
G04 #@! TF.ProjectId,Christmas_2018,4368726973746D61735F323031382E6B,A1*
G04 #@! TF.SameCoordinates,Original*
G04 #@! TF.FileFunction,Copper,L1,Top,Signal*
G04 #@! TF.FilePolarity,Positive*
%FSLAX46Y46*%
G04 Gerber Fmt 4.6, Leading zero omitted, Abs format (unit mm)*
G04 Created by KiCad (PCBNEW 5.0.1-33cea8e~68~ubuntu18.04.1) date Wed 21 Nov 2018 03:29:58 PM EST*
%MOMM*%
%LPD*%
G01*
G04 APERTURE LIST*
G04 #@! TA.AperFunction,SMDPad,CuDef*
%ADD10R,1.200000X0.750000*%
G04 #@! TD*
G04 #@! TA.AperFunction,SMDPad,CuDef*
%ADD11R,1.200000X0.900000*%
G04 #@! TD*
G04 #@! TA.AperFunction,SMDPad,CuDef*
%ADD12R,0.900000X1.200000*%
G04 #@! TD*
G04 #@! TA.AperFunction,SMDPad,CuDef*
%ADD13R,1.550000X0.600000*%
G04 #@! TD*
G04 #@! TA.AperFunction,ViaPad*
%ADD14C,0.800000*%
G04 #@! TD*
G04 #@! TA.AperFunction,Conductor*
%ADD15C,0.250000*%
G04 #@! TD*
G04 APERTURE END LIST*
D10*
G04 #@! TO.P,C1,2*
G04 #@! TO.N,GND*
X134300000Y-121920000D03*
G04 #@! TO.P,C1,1*
G04 #@! TO.N,VCC*
X132400000Y-121920000D03*
G04 #@! TD*
D11*
G04 #@! TO.P,D1,1*
G04 #@! TO.N,Net-(D1-Pad1)*
X96985000Y-118745000D03*
G04 #@! TO.P,D1,2*
G04 #@! TO.N,Net-(D1-Pad2)*
X94785000Y-118745000D03*
G04 #@! TD*
G04 #@! TO.P,D2,2*
G04 #@! TO.N,Net-(D1-Pad1)*
X103970000Y-105410000D03*
G04 #@! TO.P,D2,1*
G04 #@! TO.N,Net-(D1-Pad2)*
X101770000Y-105410000D03*
G04 #@! TD*
G04 #@! TO.P,D3,2*
G04 #@! TO.N,Net-(D1-Pad1)*
X109685000Y-92710000D03*
G04 #@! TO.P,D3,1*
G04 #@! TO.N,Net-(D10-Pad2)*
X107485000Y-92710000D03*
G04 #@! TD*
G04 #@! TO.P,D4,1*
G04 #@! TO.N,Net-(D1-Pad1)*
X113200000Y-80010000D03*
G04 #@! TO.P,D4,2*
G04 #@! TO.N,Net-(D10-Pad2)*
X115400000Y-80010000D03*
G04 #@! TD*
G04 #@! TO.P,D5,2*
G04 #@! TO.N,Net-(D10-Pad2)*
X121750000Y-67310000D03*
G04 #@! TO.P,D5,1*
G04 #@! TO.N,Net-(D11-Pad1)*
X119550000Y-67310000D03*
G04 #@! TD*
G04 #@! TO.P,D6,1*
G04 #@! TO.N,Net-(D10-Pad2)*
X126535000Y-54610000D03*
G04 #@! TO.P,D6,2*
G04 #@! TO.N,Net-(D11-Pad1)*
X128735000Y-54610000D03*
G04 #@! TD*
G04 #@! TO.P,D7,1*
G04 #@! TO.N,Net-(D13-Pad1)*
X132250000Y-43180000D03*
G04 #@! TO.P,D7,2*
G04 #@! TO.N,Net-(D11-Pad1)*
X134450000Y-43180000D03*
G04 #@! TD*
G04 #@! TO.P,D8,2*
G04 #@! TO.N,Net-(D13-Pad1)*
X141435000Y-54610000D03*
G04 #@! TO.P,D8,1*
G04 #@! TO.N,Net-(D11-Pad1)*
X139235000Y-54610000D03*
G04 #@! TD*
G04 #@! TO.P,D9,2*
G04 #@! TO.N,Net-(D1-Pad2)*
X146515000Y-67310000D03*
G04 #@! TO.P,D9,1*
G04 #@! TO.N,Net-(D10-Pad2)*
X144315000Y-67310000D03*
G04 #@! TD*
G04 #@! TO.P,D10,1*
G04 #@! TO.N,Net-(D1-Pad2)*
X151300000Y-80010000D03*
G04 #@! TO.P,D10,2*
G04 #@! TO.N,Net-(D10-Pad2)*
X153500000Y-80010000D03*
G04 #@! TD*
G04 #@! TO.P,D11,2*
G04 #@! TO.N,Net-(D1-Pad1)*
X159215000Y-92710000D03*
G04 #@! TO.P,D11,1*
G04 #@! TO.N,Net-(D11-Pad1)*
X157015000Y-92710000D03*
G04 #@! TD*
G04 #@! TO.P,D12,1*
G04 #@! TO.N,Net-(D1-Pad1)*
X162730000Y-105410000D03*
G04 #@! TO.P,D12,2*
G04 #@! TO.N,Net-(D11-Pad1)*
X164930000Y-105410000D03*
G04 #@! TD*
G04 #@! TO.P,D13,2*
G04 #@! TO.N,Net-(D10-Pad2)*
X172550000Y-118745000D03*
G04 #@! TO.P,D13,1*
G04 #@! TO.N,Net-(D13-Pad1)*
X170350000Y-118745000D03*
G04 #@! TD*
G04 #@! TO.P,D14,1*
G04 #@! TO.N,Net-(D10-Pad2)*
X140505000Y-92710000D03*
G04 #@! TO.P,D14,2*
G04 #@! TO.N,Net-(D13-Pad1)*
X142705000Y-92710000D03*
G04 #@! TD*
G04 #@! TO.P,D15,2*
G04 #@! TO.N,Net-(D1-Pad2)*
X134620000Y-67310000D03*
G04 #@! TO.P,D15,1*
G04 #@! TO.N,Net-(D11-Pad1)*
X132420000Y-67310000D03*
G04 #@! TD*
G04 #@! TO.P,D16,1*
G04 #@! TO.N,Net-(D1-Pad2)*
X139405000Y-80010000D03*
G04 #@! TO.P,D16,2*
G04 #@! TO.N,Net-(D11-Pad1)*
X141605000Y-80010000D03*
G04 #@! TD*
G04 #@! TO.P,D17,2*
G04 #@! TO.N,Net-(D1-Pad1)*
X122385000Y-104775000D03*
G04 #@! TO.P,D17,1*
G04 #@! TO.N,Net-(D13-Pad1)*
X120185000Y-104775000D03*
G04 #@! TD*
G04 #@! TO.P,D18,1*
G04 #@! TO.N,Net-(D1-Pad1)*
X123995000Y-92710000D03*
G04 #@! TO.P,D18,2*
G04 #@! TO.N,Net-(D13-Pad1)*
X126195000Y-92710000D03*
G04 #@! TD*
G04 #@! TO.P,D19,2*
G04 #@! TO.N,Net-(D1-Pad2)*
X127465000Y-80010000D03*
G04 #@! TO.P,D19,1*
G04 #@! TO.N,Net-(D13-Pad1)*
X125265000Y-80010000D03*
G04 #@! TD*
G04 #@! TO.P,D20,1*
G04 #@! TO.N,Net-(D1-Pad2)*
X144950000Y-104775000D03*
G04 #@! TO.P,D20,2*
G04 #@! TO.N,Net-(D13-Pad1)*
X147150000Y-104775000D03*
G04 #@! TD*
D12*
G04 #@! TO.P,R1,2*
G04 #@! TO.N,/PA0*
X116840000Y-118575000D03*
G04 #@! TO.P,R1,1*
G04 #@! TO.N,Net-(D1-Pad2)*
X116840000Y-116375000D03*
G04 #@! TD*
G04 #@! TO.P,R2,1*
G04 #@! TO.N,Net-(D1-Pad1)*
X112395000Y-116375000D03*
G04 #@! TO.P,R2,2*
G04 #@! TO.N,/PA1*
X112395000Y-118575000D03*
G04 #@! TD*
G04 #@! TO.P,R3,2*
G04 #@! TO.N,/PB1*
X148590000Y-118575000D03*
G04 #@! TO.P,R3,1*
G04 #@! TO.N,Net-(D10-Pad2)*
X148590000Y-116375000D03*
G04 #@! TD*
G04 #@! TO.P,R4,1*
G04 #@! TO.N,Net-(D11-Pad1)*
X144145000Y-116375000D03*
G04 #@! TO.P,R4,2*
G04 #@! TO.N,/PB2*
X144145000Y-118575000D03*
G04 #@! TD*
G04 #@! TO.P,R5,2*
G04 #@! TO.N,/PB3*
X140335000Y-118575000D03*
G04 #@! TO.P,R5,1*
G04 #@! TO.N,Net-(D13-Pad1)*
X140335000Y-116375000D03*
G04 #@! TD*
D13*
G04 #@! TO.P,U1,8*
G04 #@! TO.N,GND*
X136050000Y-125095000D03*
G04 #@! TO.P,U1,7*
G04 #@! TO.N,/PB3*
X136050000Y-126365000D03*
G04 #@! TO.P,U1,6*
G04 #@! TO.N,/PB2*
X136050000Y-127635000D03*
G04 #@! TO.P,U1,5*
G04 #@! TO.N,/PB1*
X136050000Y-128905000D03*
G04 #@! TO.P,U1,4*
G04 #@! TO.N,/RST*
X130650000Y-128905000D03*
G04 #@! TO.P,U1,3*
G04 #@! TO.N,/PA1*
X130650000Y-127635000D03*
G04 #@! TO.P,U1,2*
G04 #@! TO.N,/PA0*
X130650000Y-126365000D03*
G04 #@! TO.P,U1,1*
G04 #@! TO.N,VCC*
X130650000Y-125095000D03*
G04 #@! TD*
D14*
G04 #@! TO.N,VCC*
X132400000Y-120819700D03*
G04 #@! TO.N,GND*
X134300000Y-118119100D03*
G04 #@! TO.N,Net-(D1-Pad1)*
X157708800Y-95843300D03*
X123995000Y-95843300D03*
G04 #@! TO.N,Net-(D11-Pad1)*
X142173300Y-78947600D03*
X132420000Y-68937200D03*
G04 #@! TO.N,Net-(D13-Pad1)*
X126195000Y-94803800D03*
X142705000Y-94803800D03*
G04 #@! TO.N,/RST*
X132794100Y-124776400D03*
G04 #@! TO.N,/PA1*
X132064300Y-127257000D03*
G04 #@! TO.N,/PA0*
X145715500Y-112176000D03*
G04 #@! TD*
D15*
G04 #@! TO.N,VCC*
X132400000Y-122620300D02*
X131750300Y-123270000D01*
X131750300Y-123270000D02*
X131750300Y-125095000D01*
X132400000Y-121920000D02*
X132400000Y-122620300D01*
X130650000Y-125095000D02*
X131750300Y-125095000D01*
X132400000Y-121920000D02*
X132400000Y-120819700D01*
G04 #@! TO.N,GND*
X134300000Y-121920000D02*
X134300000Y-122620300D01*
X136050000Y-125095000D02*
X134949700Y-125095000D01*
X134949700Y-125095000D02*
X134949700Y-123270000D01*
X134949700Y-123270000D02*
X134300000Y-122620300D01*
X134300000Y-121920000D02*
X134300000Y-118119100D01*
G04 #@! TO.N,Net-(D1-Pad1)*
X103970000Y-110984700D02*
X96985000Y-117969700D01*
X103970000Y-106185300D02*
X103970000Y-110984700D01*
X112395000Y-115912300D02*
X107467400Y-110984700D01*
X107467400Y-110984700D02*
X103970000Y-110984700D01*
X96985000Y-118745000D02*
X96985000Y-117969700D01*
X103970000Y-105410000D02*
X103970000Y-106185300D01*
X112395000Y-115912300D02*
X112395000Y-115449700D01*
X112395000Y-116375000D02*
X112395000Y-115912300D01*
X122385000Y-104775000D02*
X122385000Y-97453300D01*
X122385000Y-97453300D02*
X123995000Y-95843300D01*
X123995000Y-93372700D02*
X123995000Y-95843300D01*
X157708800Y-95843300D02*
X162730000Y-100864500D01*
X162730000Y-100864500D02*
X162730000Y-104634700D01*
X157708800Y-95843300D02*
X157708800Y-94991500D01*
X157708800Y-94991500D02*
X159215000Y-93485300D01*
X123995000Y-92710000D02*
X123995000Y-93372700D01*
X162730000Y-105410000D02*
X162730000Y-104634700D01*
X159215000Y-92710000D02*
X159215000Y-93485300D01*
X112395000Y-115449700D02*
X112485600Y-115449700D01*
X112485600Y-115449700D02*
X122385000Y-105550300D01*
X122385000Y-104775000D02*
X122385000Y-105550300D01*
X109685000Y-92710000D02*
X109685000Y-93485300D01*
X108289400Y-94200000D02*
X107452100Y-94200000D01*
X107452100Y-94200000D02*
X106559600Y-93307500D01*
X106559600Y-93307500D02*
X106559600Y-91115300D01*
X106559600Y-91115300D02*
X114662700Y-83012200D01*
X114662700Y-83012200D02*
X114662700Y-82248000D01*
X114662700Y-82248000D02*
X113200000Y-80785300D01*
X109685000Y-93485300D02*
X109004100Y-93485300D01*
X109004100Y-93485300D02*
X108289400Y-94200000D01*
X103970000Y-104634700D02*
X108289400Y-100315300D01*
X108289400Y-100315300D02*
X108289400Y-94200000D01*
X113200000Y-80010000D02*
X113200000Y-80785300D01*
X103970000Y-105410000D02*
X103970000Y-104634700D01*
G04 #@! TO.N,Net-(D1-Pad2)*
X94785000Y-118745000D02*
X94785000Y-119520300D01*
X116840000Y-116375000D02*
X116064700Y-116375000D01*
X116064700Y-116375000D02*
X115139300Y-117300400D01*
X115139300Y-117300400D02*
X103068100Y-117300400D01*
X103068100Y-117300400D02*
X100848200Y-119520300D01*
X100848200Y-119520300D02*
X94785000Y-119520300D01*
X117227700Y-116375000D02*
X116840000Y-116375000D01*
X101770000Y-106185300D02*
X101951500Y-106366800D01*
X101951500Y-106366800D02*
X101951500Y-110803200D01*
X101951500Y-110803200D02*
X94785000Y-117969700D01*
X117227700Y-116375000D02*
X117615300Y-116375000D01*
X138290000Y-71755300D02*
X134620000Y-68085300D01*
X141403600Y-77743100D02*
X141403600Y-74868900D01*
X141403600Y-74868900D02*
X138290000Y-71755300D01*
X138290000Y-71755300D02*
X143510600Y-66534700D01*
X143510600Y-66534700D02*
X146515000Y-66534700D01*
X146515000Y-67310000D02*
X146515000Y-66534700D01*
X141403600Y-77743100D02*
X139136700Y-80010000D01*
X151300000Y-79234700D02*
X149808400Y-77743100D01*
X149808400Y-77743100D02*
X141403600Y-77743100D01*
X134620000Y-67310000D02*
X134620000Y-68085300D01*
X139136700Y-80010000D02*
X138479700Y-80010000D01*
X139405000Y-80010000D02*
X139136700Y-80010000D01*
X151300000Y-80010000D02*
X151300000Y-79234700D01*
X136978100Y-81511600D02*
X137267100Y-81800600D01*
X137267100Y-81800600D02*
X137267100Y-97676000D01*
X127465000Y-80010000D02*
X135476500Y-80010000D01*
X135476500Y-80010000D02*
X136978100Y-81511600D01*
X138479700Y-80010000D02*
X136978100Y-81511600D01*
X137267100Y-97676000D02*
X138626300Y-97676000D01*
X138626300Y-97676000D02*
X144950000Y-103999700D01*
X117615300Y-116375000D02*
X136314300Y-97676000D01*
X136314300Y-97676000D02*
X137267100Y-97676000D01*
X144950000Y-104775000D02*
X144950000Y-103999700D01*
X101770000Y-105410000D02*
X101770000Y-106185300D01*
X94785000Y-118745000D02*
X94785000Y-117969700D01*
G04 #@! TO.N,Net-(D10-Pad2)*
X148590000Y-116375000D02*
X158483700Y-116375000D01*
X158483700Y-116375000D02*
X164719500Y-110139200D01*
X153500000Y-80010000D02*
X153500000Y-80785300D01*
X152014700Y-82241400D02*
X153470800Y-80785300D01*
X153470800Y-80785300D02*
X153500000Y-80785300D01*
X152014700Y-82241400D02*
X147966700Y-78193400D01*
X147966700Y-78193400D02*
X141875200Y-78193400D01*
X141875200Y-78193400D02*
X140505000Y-79563600D01*
X140505000Y-79563600D02*
X140505000Y-92710000D01*
X164719500Y-110139200D02*
X164719500Y-107149500D01*
X164719500Y-107149500D02*
X165855400Y-106013600D01*
X165855400Y-106013600D02*
X165855400Y-102829700D01*
X165855400Y-102829700D02*
X158402600Y-95376900D01*
X158402600Y-95376900D02*
X158402600Y-95040100D01*
X158402600Y-95040100D02*
X160166000Y-93276700D01*
X160166000Y-93276700D02*
X160166000Y-92136000D01*
X160166000Y-92136000D02*
X152014700Y-83984700D01*
X152014700Y-83984700D02*
X152014700Y-82241400D01*
X172550000Y-117969700D02*
X164719500Y-110139200D01*
X145668100Y-69438400D02*
X144315000Y-68085300D01*
X153500000Y-79234700D02*
X145668100Y-71402800D01*
X145668100Y-71402800D02*
X145668100Y-69438400D01*
X145668100Y-69438400D02*
X145911600Y-69438400D01*
X145911600Y-69438400D02*
X147440400Y-67909600D01*
X147440400Y-67909600D02*
X147440400Y-66187000D01*
X147440400Y-66187000D02*
X139328300Y-58074900D01*
X139328300Y-58074900D02*
X139328300Y-57018600D01*
X139328300Y-57018600D02*
X139651800Y-56695100D01*
X139651800Y-56695100D02*
X140934700Y-56695100D01*
X140934700Y-56695100D02*
X142360400Y-55269400D01*
X142360400Y-55269400D02*
X142360400Y-54009400D01*
X142360400Y-54009400D02*
X135375400Y-47024400D01*
X135375400Y-47024400D02*
X135375400Y-42533300D01*
X135375400Y-42533300D02*
X134789800Y-41947700D01*
X134789800Y-41947700D02*
X131289100Y-41947700D01*
X131289100Y-41947700D02*
X130510300Y-42726500D01*
X130510300Y-42726500D02*
X130510300Y-49859400D01*
X130510300Y-49859400D02*
X126535000Y-53834700D01*
X126535000Y-54610000D02*
X126535000Y-53834700D01*
X144315000Y-67310000D02*
X144315000Y-68085300D01*
X121028500Y-68134600D02*
X121028500Y-73606200D01*
X121028500Y-73606200D02*
X115400000Y-79234700D01*
X153500000Y-80010000D02*
X153500000Y-79234700D01*
X121750000Y-67310000D02*
X121750000Y-68085300D01*
X172550000Y-118745000D02*
X172550000Y-117969700D01*
X121028500Y-68134600D02*
X118864200Y-68134600D01*
X118864200Y-68134600D02*
X118624600Y-67895000D01*
X118624600Y-67895000D02*
X118624600Y-65999600D01*
X118624600Y-65999600D02*
X127356500Y-57267700D01*
X127356500Y-57267700D02*
X127356500Y-56206800D01*
X127356500Y-56206800D02*
X126535000Y-55385300D01*
X121750000Y-68085300D02*
X121077800Y-68085300D01*
X121077800Y-68085300D02*
X121028500Y-68134600D01*
X126535000Y-54610000D02*
X126535000Y-55385300D01*
X115400000Y-80010000D02*
X115400000Y-79234700D01*
X107485000Y-92710000D02*
X107485000Y-91934700D01*
X107485000Y-91934700D02*
X115400000Y-84019700D01*
X115400000Y-84019700D02*
X115400000Y-80010000D01*
G04 #@! TO.N,Net-(D11-Pad1)*
X157015000Y-93097600D02*
X156323300Y-93097600D01*
X156323300Y-93097600D02*
X142173300Y-78947600D01*
X157015000Y-93097600D02*
X157015000Y-93485300D01*
X157015000Y-92710000D02*
X157015000Y-93097600D01*
X132420000Y-67310000D02*
X132420000Y-68937200D01*
X156983500Y-106153800D02*
X157015000Y-106185300D01*
X157015000Y-106185300D02*
X164930000Y-106185300D01*
X157015000Y-93485300D02*
X156983500Y-93516800D01*
X156983500Y-93516800D02*
X156983500Y-106153800D01*
X144920300Y-116375000D02*
X146762300Y-116375000D01*
X146762300Y-116375000D02*
X156983500Y-106153800D01*
X128735000Y-53834700D02*
X130960700Y-51609000D01*
X130960700Y-51609000D02*
X130960700Y-42945400D01*
X130960700Y-42945400D02*
X131501400Y-42404700D01*
X131501400Y-42404700D02*
X134450000Y-42404700D01*
X141605000Y-80010000D02*
X141605000Y-79234700D01*
X142173300Y-78947600D02*
X141886200Y-79234700D01*
X141886200Y-79234700D02*
X141605000Y-79234700D01*
X164930000Y-105410000D02*
X164930000Y-106185300D01*
X144145000Y-116375000D02*
X144920300Y-116375000D01*
X132420000Y-67310000D02*
X132420000Y-66534700D01*
X128735000Y-62915100D02*
X123169600Y-62915100D01*
X123169600Y-62915100D02*
X119550000Y-66534700D01*
X132420000Y-66534700D02*
X132354600Y-66534700D01*
X132354600Y-66534700D02*
X128735000Y-62915100D01*
X128735000Y-62915100D02*
X128735000Y-55385300D01*
X119550000Y-67310000D02*
X119550000Y-66534700D01*
X128735000Y-54610000D02*
X128735000Y-55385300D01*
X134450000Y-43180000D02*
X134450000Y-49049700D01*
X134450000Y-49049700D02*
X139235000Y-53834700D01*
X134450000Y-43180000D02*
X134450000Y-42404700D01*
X128735000Y-54610000D02*
X128735000Y-53834700D01*
X139235000Y-54610000D02*
X139235000Y-53834700D01*
G04 #@! TO.N,Net-(D13-Pad1)*
X126195000Y-92710000D02*
X126195000Y-91934700D01*
X125265000Y-91905500D02*
X123246000Y-91905500D01*
X123246000Y-91905500D02*
X120185000Y-94966500D01*
X120185000Y-94966500D02*
X120185000Y-104775000D01*
X126195000Y-91934700D02*
X125294200Y-91934700D01*
X125294200Y-91934700D02*
X125265000Y-91905500D01*
X125265000Y-91905500D02*
X125265000Y-80785300D01*
X125265000Y-80010000D02*
X125265000Y-80785300D01*
X126195000Y-93097600D02*
X126195000Y-92710000D01*
X139251500Y-56137100D02*
X132250000Y-49135600D01*
X132250000Y-49135600D02*
X132250000Y-43180000D01*
X125265000Y-79234700D02*
X133345400Y-71154300D01*
X133345400Y-71154300D02*
X133345400Y-62043200D01*
X133345400Y-62043200D02*
X139251500Y-56137100D01*
X140509700Y-54610000D02*
X140509700Y-54878900D01*
X140509700Y-54878900D02*
X139251500Y-56137100D01*
X141435000Y-54610000D02*
X140509700Y-54610000D01*
X125265000Y-80010000D02*
X125265000Y-79234700D01*
X142591200Y-116336300D02*
X142552500Y-116375000D01*
X142552500Y-116375000D02*
X141110300Y-116375000D01*
X147150000Y-105550300D02*
X147150000Y-111777500D01*
X147150000Y-111777500D02*
X142591200Y-116336300D01*
X142591200Y-116336300D02*
X143555300Y-117300400D01*
X143555300Y-117300400D02*
X169680700Y-117300400D01*
X169680700Y-117300400D02*
X170350000Y-117969700D01*
X126195000Y-93485300D02*
X126195000Y-94803800D01*
X170350000Y-118745000D02*
X170350000Y-117969700D01*
X147150000Y-104775000D02*
X147150000Y-105550300D01*
X140335000Y-116375000D02*
X141110300Y-116375000D01*
X147150000Y-104387300D02*
X147150000Y-104775000D01*
X126195000Y-93097600D02*
X126195000Y-93485300D01*
X142705000Y-94803800D02*
X142705000Y-99554700D01*
X142705000Y-99554700D02*
X147150000Y-103999700D01*
X142705000Y-93372700D02*
X142705000Y-94803800D01*
X147150000Y-104387300D02*
X147150000Y-103999700D01*
X142705000Y-92710000D02*
X142705000Y-93372700D01*
G04 #@! TO.N,/RST*
X130650000Y-128905000D02*
X131750300Y-128905000D01*
X131750300Y-128905000D02*
X132794100Y-127861200D01*
X132794100Y-127861200D02*
X132794100Y-124776400D01*
G04 #@! TO.N,/PA1*
X130650000Y-127635000D02*
X131750300Y-127635000D01*
X131750300Y-127635000D02*
X131750300Y-127571000D01*
X131750300Y-127571000D02*
X132064300Y-127257000D01*
X130575700Y-127635000D02*
X130650000Y-127635000D01*
X130575700Y-127635000D02*
X129549700Y-127635000D01*
X112395000Y-118575000D02*
X113170300Y-118575000D01*
X129549700Y-127635000D02*
X127394500Y-125479800D01*
X127394500Y-125479800D02*
X127394500Y-120539900D01*
X127394500Y-120539900D02*
X126982900Y-120128300D01*
X126982900Y-120128300D02*
X114723600Y-120128300D01*
X114723600Y-120128300D02*
X113170300Y-118575000D01*
G04 #@! TO.N,/PA0*
X129549700Y-121818900D02*
X139192600Y-112176000D01*
X139192600Y-112176000D02*
X145715500Y-112176000D01*
X129549700Y-126365000D02*
X129549700Y-121818900D01*
X129549700Y-121818900D02*
X126305800Y-118575000D01*
X126305800Y-118575000D02*
X116840000Y-118575000D01*
X130650000Y-126365000D02*
X129549700Y-126365000D01*
G04 #@! TO.N,/PB1*
X148590000Y-118575000D02*
X147814700Y-118575000D01*
X136050000Y-128905000D02*
X137150300Y-128905000D01*
X137150300Y-128905000D02*
X139287600Y-126767700D01*
X139287600Y-126767700D02*
X139287600Y-120569300D01*
X139287600Y-120569300D02*
X139542300Y-120314600D01*
X139542300Y-120314600D02*
X146075100Y-120314600D01*
X146075100Y-120314600D02*
X147814700Y-118575000D01*
G04 #@! TO.N,/PB2*
X144145000Y-118575000D02*
X143369700Y-118575000D01*
X136050000Y-127635000D02*
X137150300Y-127635000D01*
X137150300Y-127635000D02*
X138059700Y-126725600D01*
X138059700Y-126725600D02*
X138059700Y-121145800D01*
X138059700Y-121145800D02*
X139521800Y-119683700D01*
X139521800Y-119683700D02*
X142261000Y-119683700D01*
X142261000Y-119683700D02*
X143369700Y-118575000D01*
G04 #@! TO.N,/PB3*
X140335000Y-118575000D02*
X139559700Y-118575000D01*
X136050000Y-126365000D02*
X137150300Y-126365000D01*
X137150300Y-126365000D02*
X137150300Y-120984400D01*
X137150300Y-120984400D02*
X139559700Y-118575000D01*
G04 #@! TD*
M02*
