G04 #@! TF.GenerationSoftware,KiCad,Pcbnew,5.0.1-33cea8e~68~ubuntu18.04.1*
G04 #@! TF.CreationDate,2018-11-21T15:29:58-05:00*
G04 #@! TF.ProjectId,Christmas_2018,4368726973746D61735F323031382E6B,A1*
G04 #@! TF.SameCoordinates,Original*
G04 #@! TF.FileFunction,Legend,Bot*
G04 #@! TF.FilePolarity,Positive*
%FSLAX46Y46*%
G04 Gerber Fmt 4.6, Leading zero omitted, Abs format (unit mm)*
G04 Created by KiCad (PCBNEW 5.0.1-33cea8e~68~ubuntu18.04.1) date Wed 21 Nov 2018 03:29:58 PM EST*
%MOMM*%
%LPD*%
G01*
G04 APERTURE LIST*
%ADD10C,0.300000*%
%ADD11C,0.152400*%
%ADD12C,0.120000*%
%ADD13C,0.150000*%
G04 APERTURE END LIST*
D10*
X110655714Y-118645714D02*
X110727142Y-118717142D01*
X110941428Y-118788571D01*
X111084285Y-118788571D01*
X111298571Y-118717142D01*
X111441428Y-118574285D01*
X111512857Y-118431428D01*
X111584285Y-118145714D01*
X111584285Y-117931428D01*
X111512857Y-117645714D01*
X111441428Y-117502857D01*
X111298571Y-117360000D01*
X111084285Y-117288571D01*
X110941428Y-117288571D01*
X110727142Y-117360000D01*
X110655714Y-117431428D01*
X110012857Y-118788571D02*
X110012857Y-117288571D01*
X109370000Y-118788571D02*
X109370000Y-118002857D01*
X109441428Y-117860000D01*
X109584285Y-117788571D01*
X109798571Y-117788571D01*
X109941428Y-117860000D01*
X110012857Y-117931428D01*
X108655714Y-118788571D02*
X108655714Y-117788571D01*
X108655714Y-118074285D02*
X108584285Y-117931428D01*
X108512857Y-117860000D01*
X108370000Y-117788571D01*
X108227142Y-117788571D01*
X107727142Y-118788571D02*
X107727142Y-117788571D01*
X107727142Y-117288571D02*
X107798571Y-117360000D01*
X107727142Y-117431428D01*
X107655714Y-117360000D01*
X107727142Y-117288571D01*
X107727142Y-117431428D01*
X107084285Y-118717142D02*
X106941428Y-118788571D01*
X106655714Y-118788571D01*
X106512857Y-118717142D01*
X106441428Y-118574285D01*
X106441428Y-118502857D01*
X106512857Y-118360000D01*
X106655714Y-118288571D01*
X106870000Y-118288571D01*
X107012857Y-118217142D01*
X107084285Y-118074285D01*
X107084285Y-118002857D01*
X107012857Y-117860000D01*
X106870000Y-117788571D01*
X106655714Y-117788571D01*
X106512857Y-117860000D01*
X106012857Y-117788571D02*
X105441428Y-117788571D01*
X105798571Y-117288571D02*
X105798571Y-118574285D01*
X105727142Y-118717142D01*
X105584285Y-118788571D01*
X105441428Y-118788571D01*
X104941428Y-118788571D02*
X104941428Y-117788571D01*
X104941428Y-117931428D02*
X104870000Y-117860000D01*
X104727142Y-117788571D01*
X104512857Y-117788571D01*
X104370000Y-117860000D01*
X104298571Y-118002857D01*
X104298571Y-118788571D01*
X104298571Y-118002857D02*
X104227142Y-117860000D01*
X104084285Y-117788571D01*
X103870000Y-117788571D01*
X103727142Y-117860000D01*
X103655714Y-118002857D01*
X103655714Y-118788571D01*
X102298571Y-118788571D02*
X102298571Y-118002857D01*
X102370000Y-117860000D01*
X102512857Y-117788571D01*
X102798571Y-117788571D01*
X102941428Y-117860000D01*
X102298571Y-118717142D02*
X102441428Y-118788571D01*
X102798571Y-118788571D01*
X102941428Y-118717142D01*
X103012857Y-118574285D01*
X103012857Y-118431428D01*
X102941428Y-118288571D01*
X102798571Y-118217142D01*
X102441428Y-118217142D01*
X102298571Y-118145714D01*
X101655714Y-118717142D02*
X101512857Y-118788571D01*
X101227142Y-118788571D01*
X101084285Y-118717142D01*
X101012857Y-118574285D01*
X101012857Y-118502857D01*
X101084285Y-118360000D01*
X101227142Y-118288571D01*
X101441428Y-118288571D01*
X101584285Y-118217142D01*
X101655714Y-118074285D01*
X101655714Y-118002857D01*
X101584285Y-117860000D01*
X101441428Y-117788571D01*
X101227142Y-117788571D01*
X101084285Y-117860000D01*
X99298571Y-117431428D02*
X99227142Y-117360000D01*
X99084285Y-117288571D01*
X98727142Y-117288571D01*
X98584285Y-117360000D01*
X98512857Y-117431428D01*
X98441428Y-117574285D01*
X98441428Y-117717142D01*
X98512857Y-117931428D01*
X99370000Y-118788571D01*
X98441428Y-118788571D01*
X97512857Y-117288571D02*
X97370000Y-117288571D01*
X97227142Y-117360000D01*
X97155714Y-117431428D01*
X97084285Y-117574285D01*
X97012857Y-117860000D01*
X97012857Y-118217142D01*
X97084285Y-118502857D01*
X97155714Y-118645714D01*
X97227142Y-118717142D01*
X97370000Y-118788571D01*
X97512857Y-118788571D01*
X97655714Y-118717142D01*
X97727142Y-118645714D01*
X97798571Y-118502857D01*
X97870000Y-118217142D01*
X97870000Y-117860000D01*
X97798571Y-117574285D01*
X97727142Y-117431428D01*
X97655714Y-117360000D01*
X97512857Y-117288571D01*
X95584285Y-118788571D02*
X96441428Y-118788571D01*
X96012857Y-118788571D02*
X96012857Y-117288571D01*
X96155714Y-117502857D01*
X96298571Y-117645714D01*
X96441428Y-117717142D01*
X94727142Y-117931428D02*
X94870000Y-117860000D01*
X94941428Y-117788571D01*
X95012857Y-117645714D01*
X95012857Y-117574285D01*
X94941428Y-117431428D01*
X94870000Y-117360000D01*
X94727142Y-117288571D01*
X94441428Y-117288571D01*
X94298571Y-117360000D01*
X94227142Y-117431428D01*
X94155714Y-117574285D01*
X94155714Y-117645714D01*
X94227142Y-117788571D01*
X94298571Y-117860000D01*
X94441428Y-117931428D01*
X94727142Y-117931428D01*
X94870000Y-118002857D01*
X94941428Y-118074285D01*
X95012857Y-118217142D01*
X95012857Y-118502857D01*
X94941428Y-118645714D01*
X94870000Y-118717142D01*
X94727142Y-118788571D01*
X94441428Y-118788571D01*
X94298571Y-118717142D01*
X94227142Y-118645714D01*
X94155714Y-118502857D01*
X94155714Y-118217142D01*
X94227142Y-118074285D01*
X94298571Y-118002857D01*
X94441428Y-117931428D01*
X150100000Y-84498571D02*
X150814285Y-84498571D01*
X150814285Y-82998571D01*
X149385714Y-84498571D02*
X149528571Y-84427142D01*
X149600000Y-84355714D01*
X149671428Y-84212857D01*
X149671428Y-83784285D01*
X149600000Y-83641428D01*
X149528571Y-83570000D01*
X149385714Y-83498571D01*
X149171428Y-83498571D01*
X149028571Y-83570000D01*
X148957142Y-83641428D01*
X148885714Y-83784285D01*
X148885714Y-84212857D01*
X148957142Y-84355714D01*
X149028571Y-84427142D01*
X149171428Y-84498571D01*
X149385714Y-84498571D01*
X148385714Y-83498571D02*
X148028571Y-84498571D01*
X147671428Y-83498571D01*
X146528571Y-84427142D02*
X146671428Y-84498571D01*
X146957142Y-84498571D01*
X147100000Y-84427142D01*
X147171428Y-84284285D01*
X147171428Y-83712857D01*
X147100000Y-83570000D01*
X146957142Y-83498571D01*
X146671428Y-83498571D01*
X146528571Y-83570000D01*
X146457142Y-83712857D01*
X146457142Y-83855714D01*
X147171428Y-83998571D01*
X144242857Y-82998571D02*
X144242857Y-84070000D01*
X144314285Y-84284285D01*
X144457142Y-84427142D01*
X144671428Y-84498571D01*
X144814285Y-84498571D01*
X142885714Y-84498571D02*
X142885714Y-83712857D01*
X142957142Y-83570000D01*
X143100000Y-83498571D01*
X143385714Y-83498571D01*
X143528571Y-83570000D01*
X142885714Y-84427142D02*
X143028571Y-84498571D01*
X143385714Y-84498571D01*
X143528571Y-84427142D01*
X143600000Y-84284285D01*
X143600000Y-84141428D01*
X143528571Y-83998571D01*
X143385714Y-83927142D01*
X143028571Y-83927142D01*
X142885714Y-83855714D01*
X142171428Y-84498571D02*
X142171428Y-83498571D01*
X142171428Y-83641428D02*
X142100000Y-83570000D01*
X141957142Y-83498571D01*
X141742857Y-83498571D01*
X141600000Y-83570000D01*
X141528571Y-83712857D01*
X141528571Y-84498571D01*
X141528571Y-83712857D02*
X141457142Y-83570000D01*
X141314285Y-83498571D01*
X141100000Y-83498571D01*
X140957142Y-83570000D01*
X140885714Y-83712857D01*
X140885714Y-84498571D01*
X139600000Y-84427142D02*
X139742857Y-84498571D01*
X140028571Y-84498571D01*
X140171428Y-84427142D01*
X140242857Y-84284285D01*
X140242857Y-83712857D01*
X140171428Y-83570000D01*
X140028571Y-83498571D01*
X139742857Y-83498571D01*
X139600000Y-83570000D01*
X139528571Y-83712857D01*
X139528571Y-83855714D01*
X140242857Y-83998571D01*
X138957142Y-84427142D02*
X138814285Y-84498571D01*
X138528571Y-84498571D01*
X138385714Y-84427142D01*
X138314285Y-84284285D01*
X138314285Y-84212857D01*
X138385714Y-84070000D01*
X138528571Y-83998571D01*
X138742857Y-83998571D01*
X138885714Y-83927142D01*
X138957142Y-83784285D01*
X138957142Y-83712857D01*
X138885714Y-83570000D01*
X138742857Y-83498571D01*
X138528571Y-83498571D01*
X138385714Y-83570000D01*
X137600000Y-84427142D02*
X137600000Y-84498571D01*
X137671428Y-84641428D01*
X137742857Y-84712857D01*
X135814285Y-83712857D02*
X135314285Y-83712857D01*
X135100000Y-84498571D02*
X135814285Y-84498571D01*
X135814285Y-82998571D01*
X135100000Y-82998571D01*
X134457142Y-84498571D02*
X134457142Y-83498571D01*
X134457142Y-83784285D02*
X134385714Y-83641428D01*
X134314285Y-83570000D01*
X134171428Y-83498571D01*
X134028571Y-83498571D01*
X133528571Y-84498571D02*
X133528571Y-83498571D01*
X133528571Y-82998571D02*
X133600000Y-83070000D01*
X133528571Y-83141428D01*
X133457142Y-83070000D01*
X133528571Y-82998571D01*
X133528571Y-83141428D01*
X132814285Y-83498571D02*
X132814285Y-84498571D01*
X132814285Y-83641428D02*
X132742857Y-83570000D01*
X132600000Y-83498571D01*
X132385714Y-83498571D01*
X132242857Y-83570000D01*
X132171428Y-83712857D01*
X132171428Y-84498571D01*
X131385714Y-84427142D02*
X131385714Y-84498571D01*
X131457142Y-84641428D01*
X131528571Y-84712857D01*
X129600000Y-84498571D02*
X129600000Y-82998571D01*
X129028571Y-82998571D01*
X128885714Y-83070000D01*
X128814285Y-83141428D01*
X128742857Y-83284285D01*
X128742857Y-83498571D01*
X128814285Y-83641428D01*
X128885714Y-83712857D01*
X129028571Y-83784285D01*
X129600000Y-83784285D01*
X127457142Y-83498571D02*
X127457142Y-84498571D01*
X128100000Y-83498571D02*
X128100000Y-84284285D01*
X128028571Y-84427142D01*
X127885714Y-84498571D01*
X127671428Y-84498571D01*
X127528571Y-84427142D01*
X127457142Y-84355714D01*
X126100000Y-84427142D02*
X126242857Y-84498571D01*
X126528571Y-84498571D01*
X126671428Y-84427142D01*
X126742857Y-84355714D01*
X126814285Y-84212857D01*
X126814285Y-83784285D01*
X126742857Y-83641428D01*
X126671428Y-83570000D01*
X126528571Y-83498571D01*
X126242857Y-83498571D01*
X126100000Y-83570000D01*
X125457142Y-84498571D02*
X125457142Y-82998571D01*
X125314285Y-83927142D02*
X124885714Y-84498571D01*
X124885714Y-83498571D02*
X125457142Y-84070000D01*
X121885714Y-84498571D02*
X121957142Y-84498571D01*
X122100000Y-84427142D01*
X122314285Y-84212857D01*
X122671428Y-83784285D01*
X122814285Y-83570000D01*
X122885714Y-83355714D01*
X122885714Y-83212857D01*
X122814285Y-83070000D01*
X122671428Y-82998571D01*
X122600000Y-82998571D01*
X122457142Y-83070000D01*
X122385714Y-83212857D01*
X122385714Y-83284285D01*
X122457142Y-83427142D01*
X122528571Y-83498571D01*
X122957142Y-83784285D01*
X123028571Y-83855714D01*
X123100000Y-83998571D01*
X123100000Y-84212857D01*
X123028571Y-84355714D01*
X122957142Y-84427142D01*
X122814285Y-84498571D01*
X122600000Y-84498571D01*
X122457142Y-84427142D01*
X122385714Y-84355714D01*
X122171428Y-84070000D01*
X122100000Y-83855714D01*
X122100000Y-83712857D01*
X120100000Y-83712857D02*
X119600000Y-83712857D01*
X119385714Y-84498571D02*
X120100000Y-84498571D01*
X120100000Y-82998571D01*
X119385714Y-82998571D01*
X118528571Y-84498571D02*
X118671428Y-84427142D01*
X118742857Y-84284285D01*
X118742857Y-82998571D01*
X117742857Y-84498571D02*
X117885714Y-84427142D01*
X117957142Y-84284285D01*
X117957142Y-82998571D01*
X117171428Y-84498571D02*
X117171428Y-83498571D01*
X117171428Y-82998571D02*
X117242857Y-83070000D01*
X117171428Y-83141428D01*
X117100000Y-83070000D01*
X117171428Y-82998571D01*
X117171428Y-83141428D01*
X115885714Y-84427142D02*
X116028571Y-84498571D01*
X116314285Y-84498571D01*
X116457142Y-84427142D01*
X116528571Y-84284285D01*
X116528571Y-83712857D01*
X116457142Y-83570000D01*
X116314285Y-83498571D01*
X116028571Y-83498571D01*
X115885714Y-83570000D01*
X115814285Y-83712857D01*
X115814285Y-83855714D01*
X116528571Y-83998571D01*
X141893571Y-81323571D02*
X141893571Y-79823571D01*
X141893571Y-80537857D02*
X141036428Y-80537857D01*
X141036428Y-81323571D02*
X141036428Y-79823571D01*
X139679285Y-81323571D02*
X139679285Y-80537857D01*
X139750714Y-80395000D01*
X139893571Y-80323571D01*
X140179285Y-80323571D01*
X140322142Y-80395000D01*
X139679285Y-81252142D02*
X139822142Y-81323571D01*
X140179285Y-81323571D01*
X140322142Y-81252142D01*
X140393571Y-81109285D01*
X140393571Y-80966428D01*
X140322142Y-80823571D01*
X140179285Y-80752142D01*
X139822142Y-80752142D01*
X139679285Y-80680714D01*
X138965000Y-80323571D02*
X138965000Y-81823571D01*
X138965000Y-80395000D02*
X138822142Y-80323571D01*
X138536428Y-80323571D01*
X138393571Y-80395000D01*
X138322142Y-80466428D01*
X138250714Y-80609285D01*
X138250714Y-81037857D01*
X138322142Y-81180714D01*
X138393571Y-81252142D01*
X138536428Y-81323571D01*
X138822142Y-81323571D01*
X138965000Y-81252142D01*
X137607857Y-80323571D02*
X137607857Y-81823571D01*
X137607857Y-80395000D02*
X137465000Y-80323571D01*
X137179285Y-80323571D01*
X137036428Y-80395000D01*
X136965000Y-80466428D01*
X136893571Y-80609285D01*
X136893571Y-81037857D01*
X136965000Y-81180714D01*
X137036428Y-81252142D01*
X137179285Y-81323571D01*
X137465000Y-81323571D01*
X137607857Y-81252142D01*
X136393571Y-80323571D02*
X136036428Y-81323571D01*
X135679285Y-80323571D02*
X136036428Y-81323571D01*
X136179285Y-81680714D01*
X136250714Y-81752142D01*
X136393571Y-81823571D01*
X133965000Y-81323571D02*
X133965000Y-79823571D01*
X133107857Y-81323571D01*
X133107857Y-79823571D01*
X131822142Y-81252142D02*
X131965000Y-81323571D01*
X132250714Y-81323571D01*
X132393571Y-81252142D01*
X132465000Y-81109285D01*
X132465000Y-80537857D01*
X132393571Y-80395000D01*
X132250714Y-80323571D01*
X131965000Y-80323571D01*
X131822142Y-80395000D01*
X131750714Y-80537857D01*
X131750714Y-80680714D01*
X132465000Y-80823571D01*
X131250714Y-80323571D02*
X130965000Y-81323571D01*
X130679285Y-80609285D01*
X130393571Y-81323571D01*
X130107857Y-80323571D01*
X128107857Y-80609285D02*
X128107857Y-81323571D01*
X128607857Y-79823571D02*
X128107857Y-80609285D01*
X127607857Y-79823571D01*
X126536428Y-81252142D02*
X126679285Y-81323571D01*
X126965000Y-81323571D01*
X127107857Y-81252142D01*
X127179285Y-81109285D01*
X127179285Y-80537857D01*
X127107857Y-80395000D01*
X126965000Y-80323571D01*
X126679285Y-80323571D01*
X126536428Y-80395000D01*
X126465000Y-80537857D01*
X126465000Y-80680714D01*
X127179285Y-80823571D01*
X125179285Y-81323571D02*
X125179285Y-80537857D01*
X125250714Y-80395000D01*
X125393571Y-80323571D01*
X125679285Y-80323571D01*
X125822142Y-80395000D01*
X125179285Y-81252142D02*
X125322142Y-81323571D01*
X125679285Y-81323571D01*
X125822142Y-81252142D01*
X125893571Y-81109285D01*
X125893571Y-80966428D01*
X125822142Y-80823571D01*
X125679285Y-80752142D01*
X125322142Y-80752142D01*
X125179285Y-80680714D01*
X124465000Y-81323571D02*
X124465000Y-80323571D01*
X124465000Y-80609285D02*
X124393571Y-80466428D01*
X124322142Y-80395000D01*
X124179285Y-80323571D01*
X124036428Y-80323571D01*
X123536428Y-81180714D02*
X123465000Y-81252142D01*
X123536428Y-81323571D01*
X123607857Y-81252142D01*
X123536428Y-81180714D01*
X123536428Y-81323571D01*
X123536428Y-80752142D02*
X123607857Y-79895000D01*
X123536428Y-79823571D01*
X123465000Y-79895000D01*
X123536428Y-80752142D01*
X123536428Y-79823571D01*
X140607857Y-78148571D02*
X140607857Y-76648571D01*
X139965000Y-78148571D02*
X139965000Y-77362857D01*
X140036428Y-77220000D01*
X140179285Y-77148571D01*
X140393571Y-77148571D01*
X140536428Y-77220000D01*
X140607857Y-77291428D01*
X139036428Y-78148571D02*
X139179285Y-78077142D01*
X139250714Y-78005714D01*
X139322142Y-77862857D01*
X139322142Y-77434285D01*
X139250714Y-77291428D01*
X139179285Y-77220000D01*
X139036428Y-77148571D01*
X138822142Y-77148571D01*
X138679285Y-77220000D01*
X138607857Y-77291428D01*
X138536428Y-77434285D01*
X138536428Y-77862857D01*
X138607857Y-78005714D01*
X138679285Y-78077142D01*
X138822142Y-78148571D01*
X139036428Y-78148571D01*
X137679285Y-78148571D02*
X137822142Y-78077142D01*
X137893571Y-77934285D01*
X137893571Y-76648571D01*
X137107857Y-78148571D02*
X137107857Y-77148571D01*
X137107857Y-76648571D02*
X137179285Y-76720000D01*
X137107857Y-76791428D01*
X137036428Y-76720000D01*
X137107857Y-76648571D01*
X137107857Y-76791428D01*
X135750714Y-78148571D02*
X135750714Y-76648571D01*
X135750714Y-78077142D02*
X135893571Y-78148571D01*
X136179285Y-78148571D01*
X136322142Y-78077142D01*
X136393571Y-78005714D01*
X136465000Y-77862857D01*
X136465000Y-77434285D01*
X136393571Y-77291428D01*
X136322142Y-77220000D01*
X136179285Y-77148571D01*
X135893571Y-77148571D01*
X135750714Y-77220000D01*
X134393571Y-78148571D02*
X134393571Y-77362857D01*
X134465000Y-77220000D01*
X134607857Y-77148571D01*
X134893571Y-77148571D01*
X135036428Y-77220000D01*
X134393571Y-78077142D02*
X134536428Y-78148571D01*
X134893571Y-78148571D01*
X135036428Y-78077142D01*
X135107857Y-77934285D01*
X135107857Y-77791428D01*
X135036428Y-77648571D01*
X134893571Y-77577142D01*
X134536428Y-77577142D01*
X134393571Y-77505714D01*
X133822142Y-77148571D02*
X133465000Y-78148571D01*
X133107857Y-77148571D02*
X133465000Y-78148571D01*
X133607857Y-78505714D01*
X133679285Y-78577142D01*
X133822142Y-78648571D01*
X132465000Y-78077142D02*
X132465000Y-78148571D01*
X132536428Y-78291428D01*
X132607857Y-78362857D01*
X130036428Y-78148571D02*
X130036428Y-77362857D01*
X130107857Y-77220000D01*
X130250714Y-77148571D01*
X130536428Y-77148571D01*
X130679285Y-77220000D01*
X130036428Y-78077142D02*
X130179285Y-78148571D01*
X130536428Y-78148571D01*
X130679285Y-78077142D01*
X130750714Y-77934285D01*
X130750714Y-77791428D01*
X130679285Y-77648571D01*
X130536428Y-77577142D01*
X130179285Y-77577142D01*
X130036428Y-77505714D01*
X129322142Y-77148571D02*
X129322142Y-78148571D01*
X129322142Y-77291428D02*
X129250714Y-77220000D01*
X129107857Y-77148571D01*
X128893571Y-77148571D01*
X128750714Y-77220000D01*
X128679285Y-77362857D01*
X128679285Y-78148571D01*
X127322142Y-78148571D02*
X127322142Y-76648571D01*
X127322142Y-78077142D02*
X127465000Y-78148571D01*
X127750714Y-78148571D01*
X127893571Y-78077142D01*
X127965000Y-78005714D01*
X128036428Y-77862857D01*
X128036428Y-77434285D01*
X127965000Y-77291428D01*
X127893571Y-77220000D01*
X127750714Y-77148571D01*
X127465000Y-77148571D01*
X127322142Y-77220000D01*
X124822142Y-78148571D02*
X124822142Y-77362857D01*
X124893571Y-77220000D01*
X125036428Y-77148571D01*
X125322142Y-77148571D01*
X125465000Y-77220000D01*
X124822142Y-78077142D02*
X124965000Y-78148571D01*
X125322142Y-78148571D01*
X125465000Y-78077142D01*
X125536428Y-77934285D01*
X125536428Y-77791428D01*
X125465000Y-77648571D01*
X125322142Y-77577142D01*
X124965000Y-77577142D01*
X124822142Y-77505714D01*
X141536428Y-74108571D02*
X140679285Y-74108571D01*
X141107857Y-75608571D02*
X141107857Y-74108571D01*
X139322142Y-75608571D02*
X139822142Y-74894285D01*
X140179285Y-75608571D02*
X140179285Y-74108571D01*
X139607857Y-74108571D01*
X139465000Y-74180000D01*
X139393571Y-74251428D01*
X139322142Y-74394285D01*
X139322142Y-74608571D01*
X139393571Y-74751428D01*
X139465000Y-74822857D01*
X139607857Y-74894285D01*
X140179285Y-74894285D01*
X138679285Y-74822857D02*
X138179285Y-74822857D01*
X137965000Y-75608571D02*
X138679285Y-75608571D01*
X138679285Y-74108571D01*
X137965000Y-74108571D01*
X137322142Y-74822857D02*
X136822142Y-74822857D01*
X136607857Y-75608571D02*
X137322142Y-75608571D01*
X137322142Y-74108571D01*
X136607857Y-74108571D01*
X135965000Y-75037142D02*
X134822142Y-75037142D01*
X134107857Y-75608571D02*
X134107857Y-74108571D01*
X133607857Y-75180000D01*
X133107857Y-74108571D01*
X133107857Y-75608571D01*
X132393571Y-74822857D02*
X131893571Y-74822857D01*
X131679285Y-75608571D02*
X132393571Y-75608571D01*
X132393571Y-74108571D01*
X131679285Y-74108571D01*
X131036428Y-75608571D02*
X131036428Y-74108571D01*
X130179285Y-75608571D01*
X130179285Y-74108571D01*
X129465000Y-75608571D02*
X129465000Y-74108571D01*
X129107857Y-74108571D01*
X128893571Y-74180000D01*
X128750714Y-74322857D01*
X128679285Y-74465714D01*
X128607857Y-74751428D01*
X128607857Y-74965714D01*
X128679285Y-75251428D01*
X128750714Y-75394285D01*
X128893571Y-75537142D01*
X129107857Y-75608571D01*
X129465000Y-75608571D01*
X127679285Y-74108571D02*
X127393571Y-74108571D01*
X127250714Y-74180000D01*
X127107857Y-74322857D01*
X127036428Y-74608571D01*
X127036428Y-75108571D01*
X127107857Y-75394285D01*
X127250714Y-75537142D01*
X127393571Y-75608571D01*
X127679285Y-75608571D01*
X127822142Y-75537142D01*
X127965000Y-75394285D01*
X128036428Y-75108571D01*
X128036428Y-74608571D01*
X127965000Y-74322857D01*
X127822142Y-74180000D01*
X127679285Y-74108571D01*
X126393571Y-74108571D02*
X126393571Y-75322857D01*
X126322142Y-75465714D01*
X126250714Y-75537142D01*
X126107857Y-75608571D01*
X125822142Y-75608571D01*
X125679285Y-75537142D01*
X125607857Y-75465714D01*
X125536428Y-75322857D01*
X125536428Y-74108571D01*
X124893571Y-75537142D02*
X124679285Y-75608571D01*
X124322142Y-75608571D01*
X124179285Y-75537142D01*
X124107857Y-75465714D01*
X124036428Y-75322857D01*
X124036428Y-75180000D01*
X124107857Y-75037142D01*
X124179285Y-74965714D01*
X124322142Y-74894285D01*
X124607857Y-74822857D01*
X124750714Y-74751428D01*
X124822142Y-74680000D01*
X124893571Y-74537142D01*
X124893571Y-74394285D01*
X124822142Y-74251428D01*
X124750714Y-74180000D01*
X124607857Y-74108571D01*
X124250714Y-74108571D01*
X124036428Y-74180000D01*
X144778571Y-70933571D02*
X144421428Y-72433571D01*
X144135714Y-71362142D01*
X143850000Y-72433571D01*
X143492857Y-70933571D01*
X142350000Y-72362142D02*
X142492857Y-72433571D01*
X142778571Y-72433571D01*
X142921428Y-72362142D01*
X142992857Y-72219285D01*
X142992857Y-71647857D01*
X142921428Y-71505000D01*
X142778571Y-71433571D01*
X142492857Y-71433571D01*
X142350000Y-71505000D01*
X142278571Y-71647857D01*
X142278571Y-71790714D01*
X142992857Y-71933571D01*
X140492857Y-72433571D02*
X140492857Y-70933571D01*
X139850000Y-72433571D02*
X139850000Y-71647857D01*
X139921428Y-71505000D01*
X140064285Y-71433571D01*
X140278571Y-71433571D01*
X140421428Y-71505000D01*
X140492857Y-71576428D01*
X138921428Y-72433571D02*
X139064285Y-72362142D01*
X139135714Y-72290714D01*
X139207142Y-72147857D01*
X139207142Y-71719285D01*
X139135714Y-71576428D01*
X139064285Y-71505000D01*
X138921428Y-71433571D01*
X138707142Y-71433571D01*
X138564285Y-71505000D01*
X138492857Y-71576428D01*
X138421428Y-71719285D01*
X138421428Y-72147857D01*
X138492857Y-72290714D01*
X138564285Y-72362142D01*
X138707142Y-72433571D01*
X138921428Y-72433571D01*
X137778571Y-71433571D02*
X137778571Y-72933571D01*
X137778571Y-71505000D02*
X137635714Y-71433571D01*
X137350000Y-71433571D01*
X137207142Y-71505000D01*
X137135714Y-71576428D01*
X137064285Y-71719285D01*
X137064285Y-72147857D01*
X137135714Y-72290714D01*
X137207142Y-72362142D01*
X137350000Y-72433571D01*
X137635714Y-72433571D01*
X137778571Y-72362142D01*
X135850000Y-72362142D02*
X135992857Y-72433571D01*
X136278571Y-72433571D01*
X136421428Y-72362142D01*
X136492857Y-72219285D01*
X136492857Y-71647857D01*
X136421428Y-71505000D01*
X136278571Y-71433571D01*
X135992857Y-71433571D01*
X135850000Y-71505000D01*
X135778571Y-71647857D01*
X135778571Y-71790714D01*
X136492857Y-71933571D01*
X134135714Y-71433571D02*
X133778571Y-72433571D01*
X133421428Y-71433571D02*
X133778571Y-72433571D01*
X133921428Y-72790714D01*
X133992857Y-72862142D01*
X134135714Y-72933571D01*
X132635714Y-72433571D02*
X132778571Y-72362142D01*
X132850000Y-72290714D01*
X132921428Y-72147857D01*
X132921428Y-71719285D01*
X132850000Y-71576428D01*
X132778571Y-71505000D01*
X132635714Y-71433571D01*
X132421428Y-71433571D01*
X132278571Y-71505000D01*
X132207142Y-71576428D01*
X132135714Y-71719285D01*
X132135714Y-72147857D01*
X132207142Y-72290714D01*
X132278571Y-72362142D01*
X132421428Y-72433571D01*
X132635714Y-72433571D01*
X130850000Y-71433571D02*
X130850000Y-72433571D01*
X131492857Y-71433571D02*
X131492857Y-72219285D01*
X131421428Y-72362142D01*
X131278571Y-72433571D01*
X131064285Y-72433571D01*
X130921428Y-72362142D01*
X130850000Y-72290714D01*
X128992857Y-72433571D02*
X128992857Y-70933571D01*
X128350000Y-72433571D02*
X128350000Y-71647857D01*
X128421428Y-71505000D01*
X128564285Y-71433571D01*
X128778571Y-71433571D01*
X128921428Y-71505000D01*
X128992857Y-71576428D01*
X126992857Y-72433571D02*
X126992857Y-71647857D01*
X127064285Y-71505000D01*
X127207142Y-71433571D01*
X127492857Y-71433571D01*
X127635714Y-71505000D01*
X126992857Y-72362142D02*
X127135714Y-72433571D01*
X127492857Y-72433571D01*
X127635714Y-72362142D01*
X127707142Y-72219285D01*
X127707142Y-72076428D01*
X127635714Y-71933571D01*
X127492857Y-71862142D01*
X127135714Y-71862142D01*
X126992857Y-71790714D01*
X126421428Y-71433571D02*
X126064285Y-72433571D01*
X125707142Y-71433571D01*
X124564285Y-72362142D02*
X124707142Y-72433571D01*
X124992857Y-72433571D01*
X125135714Y-72362142D01*
X125207142Y-72219285D01*
X125207142Y-71647857D01*
X125135714Y-71505000D01*
X124992857Y-71433571D01*
X124707142Y-71433571D01*
X124564285Y-71505000D01*
X124492857Y-71647857D01*
X124492857Y-71790714D01*
X125207142Y-71933571D01*
X122064285Y-72433571D02*
X122064285Y-71647857D01*
X122135714Y-71505000D01*
X122278571Y-71433571D01*
X122564285Y-71433571D01*
X122707142Y-71505000D01*
X122064285Y-72362142D02*
X122207142Y-72433571D01*
X122564285Y-72433571D01*
X122707142Y-72362142D01*
X122778571Y-72219285D01*
X122778571Y-72076428D01*
X122707142Y-71933571D01*
X122564285Y-71862142D01*
X122207142Y-71862142D01*
X122064285Y-71790714D01*
D11*
G04 #@! TO.C,U2*
X122809000Y-100838000D02*
X143891000Y-100838000D01*
X143891000Y-100838000D02*
X143891000Y-105712260D01*
X143891000Y-116332000D02*
X122809000Y-116332000D01*
X122809000Y-116332000D02*
X122809000Y-111457740D01*
X122809000Y-105712260D02*
X122809000Y-100838000D01*
X143891000Y-111457740D02*
X143891000Y-116332000D01*
X119964200Y-108585000D02*
G75*
G03X119964200Y-108585000I-76200J0D01*
G01*
D12*
G04 #@! TO.C,J1*
X163320000Y-114240000D02*
X166430000Y-114240000D01*
X158240000Y-114240000D02*
X161800000Y-114240000D01*
X165860000Y-114240000D02*
X166430000Y-114240000D01*
X153610000Y-116900000D02*
X154180000Y-116900000D01*
X154180000Y-116900000D02*
X154180000Y-118420000D01*
X153610000Y-114240000D02*
X156720000Y-114240000D01*
X160780000Y-116900000D02*
X164340000Y-116900000D01*
X155700000Y-116900000D02*
X159260000Y-116900000D01*
X166430000Y-114240000D02*
X166430000Y-116900000D01*
X153610000Y-114240000D02*
X153610000Y-116900000D01*
G04 #@! TO.C,U2*
D13*
X134111904Y-108037380D02*
X134111904Y-108846904D01*
X134064285Y-108942142D01*
X134016666Y-108989761D01*
X133921428Y-109037380D01*
X133730952Y-109037380D01*
X133635714Y-108989761D01*
X133588095Y-108942142D01*
X133540476Y-108846904D01*
X133540476Y-108037380D01*
X133111904Y-108132619D02*
X133064285Y-108085000D01*
X132969047Y-108037380D01*
X132730952Y-108037380D01*
X132635714Y-108085000D01*
X132588095Y-108132619D01*
X132540476Y-108227857D01*
X132540476Y-108323095D01*
X132588095Y-108465952D01*
X133159523Y-109037380D01*
X132540476Y-109037380D01*
X138183333Y-108513571D02*
X138040476Y-108561190D01*
X137992857Y-108608809D01*
X137945238Y-108704047D01*
X137945238Y-108846904D01*
X137992857Y-108942142D01*
X138040476Y-108989761D01*
X138135714Y-109037380D01*
X138516666Y-109037380D01*
X138516666Y-108037380D01*
X138183333Y-108037380D01*
X138088095Y-108085000D01*
X138040476Y-108132619D01*
X137992857Y-108227857D01*
X137992857Y-108323095D01*
X138040476Y-108418333D01*
X138088095Y-108465952D01*
X138183333Y-108513571D01*
X138516666Y-108513571D01*
X137564285Y-108751666D02*
X137088095Y-108751666D01*
X137659523Y-109037380D02*
X137326190Y-108037380D01*
X136992857Y-109037380D01*
X136802380Y-108037380D02*
X136230952Y-108037380D01*
X136516666Y-109037380D02*
X136516666Y-108037380D01*
X135897619Y-108656428D02*
X135135714Y-108656428D01*
X134659523Y-109037380D02*
X134659523Y-108037380D01*
X134659523Y-108513571D02*
X134088095Y-108513571D01*
X134088095Y-109037380D02*
X134088095Y-108037380D01*
X133135714Y-109037380D02*
X133611904Y-109037380D01*
X133611904Y-108037380D01*
X132802380Y-109037380D02*
X132802380Y-108037380D01*
X132564285Y-108037380D01*
X132421428Y-108085000D01*
X132326190Y-108180238D01*
X132278571Y-108275476D01*
X132230952Y-108465952D01*
X132230952Y-108608809D01*
X132278571Y-108799285D01*
X132326190Y-108894523D01*
X132421428Y-108989761D01*
X132564285Y-109037380D01*
X132802380Y-109037380D01*
X131802380Y-108656428D02*
X131040476Y-108656428D01*
X130373809Y-108037380D02*
X130278571Y-108037380D01*
X130183333Y-108085000D01*
X130135714Y-108132619D01*
X130088095Y-108227857D01*
X130040476Y-108418333D01*
X130040476Y-108656428D01*
X130088095Y-108846904D01*
X130135714Y-108942142D01*
X130183333Y-108989761D01*
X130278571Y-109037380D01*
X130373809Y-109037380D01*
X130469047Y-108989761D01*
X130516666Y-108942142D01*
X130564285Y-108846904D01*
X130611904Y-108656428D01*
X130611904Y-108418333D01*
X130564285Y-108227857D01*
X130516666Y-108132619D01*
X130469047Y-108085000D01*
X130373809Y-108037380D01*
X129421428Y-108037380D02*
X129326190Y-108037380D01*
X129230952Y-108085000D01*
X129183333Y-108132619D01*
X129135714Y-108227857D01*
X129088095Y-108418333D01*
X129088095Y-108656428D01*
X129135714Y-108846904D01*
X129183333Y-108942142D01*
X129230952Y-108989761D01*
X129326190Y-109037380D01*
X129421428Y-109037380D01*
X129516666Y-108989761D01*
X129564285Y-108942142D01*
X129611904Y-108846904D01*
X129659523Y-108656428D01*
X129659523Y-108418333D01*
X129611904Y-108227857D01*
X129564285Y-108132619D01*
X129516666Y-108085000D01*
X129421428Y-108037380D01*
X128135714Y-109037380D02*
X128707142Y-109037380D01*
X128421428Y-109037380D02*
X128421428Y-108037380D01*
X128516666Y-108180238D01*
X128611904Y-108275476D01*
X128707142Y-108323095D01*
X133350000Y-108037380D02*
X133350000Y-108275476D01*
X133588095Y-108180238D02*
X133350000Y-108275476D01*
X133111904Y-108180238D01*
X133492857Y-108465952D02*
X133350000Y-108275476D01*
X133207142Y-108465952D01*
G04 #@! TO.C,J1*
X152733333Y-118197380D02*
X152733333Y-118911666D01*
X152780952Y-119054523D01*
X152876190Y-119149761D01*
X153019047Y-119197380D01*
X153114285Y-119197380D01*
X151733333Y-119197380D02*
X152304761Y-119197380D01*
X152019047Y-119197380D02*
X152019047Y-118197380D01*
X152114285Y-118340238D01*
X152209523Y-118435476D01*
X152304761Y-118483095D01*
G04 #@! TD*
M02*
