G04 #@! TF.GenerationSoftware,KiCad,Pcbnew,5.0.1-33cea8e~68~ubuntu18.04.1*
G04 #@! TF.CreationDate,2018-11-21T15:29:58-05:00*
G04 #@! TF.ProjectId,Christmas_2018,4368726973746D61735F323031382E6B,A1*
G04 #@! TF.SameCoordinates,Original*
G04 #@! TF.FileFunction,Soldermask,Bot*
G04 #@! TF.FilePolarity,Negative*
%FSLAX46Y46*%
G04 Gerber Fmt 4.6, Leading zero omitted, Abs format (unit mm)*
G04 Created by KiCad (PCBNEW 5.0.1-33cea8e~68~ubuntu18.04.1) date Wed 21 Nov 2018 03:29:58 PM EST*
%MOMM*%
%LPD*%
G01*
G04 APERTURE LIST*
%ADD10C,0.100000*%
G04 APERTURE END LIST*
D10*
G36*
X160520000Y-118480000D02*
X159520000Y-118480000D01*
X159520000Y-115970000D01*
X160520000Y-115970000D01*
X160520000Y-118480000D01*
X160520000Y-118480000D01*
G37*
G36*
X155440000Y-118480000D02*
X154440000Y-118480000D01*
X154440000Y-115970000D01*
X155440000Y-115970000D01*
X155440000Y-118480000D01*
X155440000Y-118480000D01*
G37*
G36*
X165600000Y-118480000D02*
X164600000Y-118480000D01*
X164600000Y-115970000D01*
X165600000Y-115970000D01*
X165600000Y-118480000D01*
X165600000Y-118480000D01*
G37*
G36*
X135943117Y-100036637D02*
X137560993Y-100706783D01*
X139017048Y-101679688D01*
X140255312Y-102917952D01*
X141228217Y-104374007D01*
X141898363Y-105991883D01*
X142240000Y-107709410D01*
X142240000Y-109460590D01*
X141898363Y-111178117D01*
X141228217Y-112795993D01*
X140255312Y-114252048D01*
X139017048Y-115490312D01*
X137560993Y-116463217D01*
X135943117Y-117133363D01*
X134225590Y-117475000D01*
X132474410Y-117475000D01*
X130756883Y-117133363D01*
X129139007Y-116463217D01*
X127682952Y-115490312D01*
X126444688Y-114252048D01*
X125471783Y-112795993D01*
X124801637Y-111178117D01*
X124460000Y-109460590D01*
X124460000Y-107709410D01*
X124801637Y-105991883D01*
X125471783Y-104374007D01*
X126444688Y-102917952D01*
X127682952Y-101679688D01*
X129139007Y-100706783D01*
X130756883Y-100036637D01*
X132474410Y-99695000D01*
X134225590Y-99695000D01*
X135943117Y-100036637D01*
X135943117Y-100036637D01*
G37*
G36*
X163060000Y-115170000D02*
X162060000Y-115170000D01*
X162060000Y-112660000D01*
X163060000Y-112660000D01*
X163060000Y-115170000D01*
X163060000Y-115170000D01*
G37*
G36*
X157980000Y-115170000D02*
X156980000Y-115170000D01*
X156980000Y-112660000D01*
X157980000Y-112660000D01*
X157980000Y-115170000D01*
X157980000Y-115170000D01*
G37*
G36*
X123190000Y-111252000D02*
X120650000Y-111252000D01*
X120650000Y-106172000D01*
X123190000Y-106172000D01*
X123190000Y-111252000D01*
X123190000Y-111252000D01*
G37*
G36*
X146050000Y-111252000D02*
X143510000Y-111252000D01*
X143510000Y-106172000D01*
X146050000Y-106172000D01*
X146050000Y-111252000D01*
X146050000Y-111252000D01*
G37*
G36*
X133670857Y-34502272D02*
X133871042Y-34585191D01*
X134051213Y-34705578D01*
X134204422Y-34858787D01*
X134324809Y-35038958D01*
X134407728Y-35239143D01*
X134450000Y-35451658D01*
X134450000Y-35668342D01*
X134407728Y-35880857D01*
X134324809Y-36081042D01*
X134204422Y-36261213D01*
X134051213Y-36414422D01*
X133871042Y-36534809D01*
X133670857Y-36617728D01*
X133458342Y-36660000D01*
X133241658Y-36660000D01*
X133029143Y-36617728D01*
X132828958Y-36534809D01*
X132648787Y-36414422D01*
X132495578Y-36261213D01*
X132375191Y-36081042D01*
X132292272Y-35880857D01*
X132250000Y-35668342D01*
X132250000Y-35451658D01*
X132292272Y-35239143D01*
X132375191Y-35038958D01*
X132495578Y-34858787D01*
X132648787Y-34705578D01*
X132828958Y-34585191D01*
X133029143Y-34502272D01*
X133241658Y-34460000D01*
X133458342Y-34460000D01*
X133670857Y-34502272D01*
X133670857Y-34502272D01*
G37*
M02*
